<?xml version="1.0" encoding="UTF-8" standalone="no"?>
<!-- Created with Inkscape (http://www.inkscape.org/) -->
<svg
   xmlns:svg="http://www.w3.org/2000/svg"
   xmlns="http://www.w3.org/2000/svg"
   version="1.0"
   width="453.38852"
   height="531.25085"
   id="svg14537">
  <defs
     id="defs14539" />
  <g
     transform="translate(-154.4727,-456.7367)"
     id="layer1">
    <path
       d="M 0,0 L 0,531.25 L 453.375,531.25 L 453.375,0 L 0,0 z "
       transform="translate(154.4727,456.7367)"
       style="fill:black;fill-rule:nonzero;stroke:none;stroke-width:2;stroke-linecap:butt;stroke-linejoin:miter;stroke-miterlimit:4;stroke-dasharray:none"
       id="path14250" />
    <path
       d="M 381.19145,489.8617 C 343.09207,489.8617 307.64799,501.08002 277.6602,520.14295 C 270.18967,534.83481 263.69145,554.12562 263.69145,574.7992 C 263.69145,576.47876 263.76289,578.16624 263.8477,579.8617 C 265.77095,616.90671 289.50847,646.10631 332.5352,664.2367 C 354.58108,673.52977 377.01064,680.82569 398.7227,687.8617 C 468.92389,710.60692 529.7852,730.33715 529.7852,804.8617 C 529.7852,805.62472 529.7227,806.45255 529.7227,807.2367 C 557.7661,773.646 574.69145,730.45693 574.69145,683.39295 C 574.69146,576.6659 487.9026,489.8617 381.19145,489.8617 z M 381.19145,495.14295 C 484.98333,495.14295 569.4102,579.57995 569.4102,683.39295 C 569.41021,722.55196 557.29045,760.21756 534.56645,792.0492 C 527.61516,723.67058 465.58443,703.94967 400.3477,682.7992 C 378.78395,675.82145 356.49519,668.61232 334.5977,659.3617 C 293.5578,642.07896 270.92503,614.49033 269.12895,579.58045 L 269.00395,574.7992 C 269.00395,554.08326 275.79346,535.94579 281.75395,523.9242 C 311.74707,505.1315 346.09091,495.14295 381.19145,495.14295 z M 473.09082,621.41549 C 471.70271,634.36962 465.16472,646.1899 454.64783,654.65113 C 442.9335,664.09259 427.16603,668.53772 411.39323,666.82112 C 395.74769,665.14689 381.363,657.44857 371.90573,645.71311 C 363.42336,635.18024 359.50796,622.26322 360.89607,609.33031 C 362.3054,596.22787 368.94409,584.26453 379.62527,575.67613 C 391.36073,566.21886 407.0275,561.74718 422.58832,563.42666 C 438.15447,565.12212 452.49672,572.79921 461.95398,584.53476 C 470.54239,595.21594 474.49482,608.29192 473.09082,621.41549 z M 381.17757,498.85215 C 347.23735,498.85215 313.89568,508.47904 284.61256,526.60419 C 279.0865,537.99003 272.70747,555.25156 272.70747,574.70656 C 272.70747,574.70656 272.83464,579.35842 272.83464,579.37956 C 274.55124,612.76359 296.4275,639.23338 336.04217,655.93863 C 357.8125,665.12566 380.01734,672.30473 401.50153,679.28248 L 402.74134,679.67455 C 465.51444,700.01965 526.54971,720.23233 536.83349,782.1418 C 555.85406,752.56723 565.7034,718.74885 565.7034,683.3992 C 565.7034,581.63662 482.91902,498.85215 381.17757,498.85215 M 468.86815,620.95992 C 467.60721,632.81723 461.60436,643.64147 451.95634,651.40336 C 441.1162,660.14007 426.4825,664.23557 411.82775,662.66204 C 397.32122,661.08851 383.96977,653.96769 375.21708,643.10633 C 367.41283,633.42128 363.83657,621.601 365.0976,609.78597 C 366.4009,597.78027 372.50445,586.83419 382.29554,578.9239 C 393.16214,570.1713 407.68981,566.05457 422.13799,567.60697 C 436.58094,569.15937 449.89003,576.27485 458.64263,587.16268 C 466.52637,596.95367 470.17154,608.95413 468.86815,620.95992 M 421.61875,572.38591 C 395.62576,569.5938 372.40375,586.60631 369.85532,610.29988 C 367.33344,633.72854 386.39104,655.08557 412.34691,657.8831 C 425.77792,659.32946 439.12937,655.58367 448.99994,647.63635 C 457.6307,640.68507 463.00836,631.03705 464.12624,620.46181 C 466.69589,596.74711 447.61174,575.17811 421.61875,572.38591"
       style="fill:#6bb6e3;fill-rule:nonzero;stroke:none"
       id="path14236" />
    <g
       id="g14597">
      <path
         d="M 185.93354,899.68776 L 219.03136,899.68776 L 219.03136,907.23768 L 195.8676,907.23768 L 195.8676,924.12311 L 217.75452,924.12311 L 217.75452,931.67836 L 195.8676,931.67836 L 195.8676,958.23295 L 185.93354,958.23295 L 185.93354,899.68776"
         style="fill:white;fill-rule:nonzero;stroke:none;stroke-width:2;stroke-linecap:butt;stroke-linejoin:miter;stroke-miterlimit:4;stroke-dasharray:none"
         id="path14258" />
      <path
         d="M 235.91147,934.81485 L 252.20342,934.81485 L 244.14483,909.10266 L 243.9753,909.10266 L 235.91147,934.81485 z M 238.12084,899.68776 L 250.08418,899.68776 L 270.02654,958.23295 L 259.66862,958.23295 L 254.58232,942.3701 L 233.53789,942.3701 L 228.44627,958.23295 L 218.09358,958.23295 L 238.12084,899.68776"
         style="fill:white;fill-rule:nonzero;stroke:none;stroke-width:2;stroke-linecap:butt;stroke-linejoin:miter;stroke-miterlimit:4;stroke-dasharray:none"
         id="path14260" />
      <path
         d="M 277.8308,899.68776 L 287.75438,899.68776 L 287.75438,958.23295 L 277.8308,958.23295 L 277.8308,899.68776"
         style="fill:white;fill-rule:nonzero;stroke:none;stroke-width:2;stroke-linecap:butt;stroke-linejoin:miter;stroke-miterlimit:4;stroke-dasharray:none"
         id="path14262" />
      <path
         d="M 311.68106,926.07282 L 315.58581,926.07282 C 321.77941,926.07282 328.23268,924.80122 328.23268,916.14933 C 328.23268,910.04044 325.09085,906.72909 319.49065,906.72909 L 311.68106,906.72909 L 311.68106,926.07282 z M 301.75757,899.68776 L 319.49065,899.68776 C 330.52145,899.68776 338.3257,903.59259 338.3257,915.04193 C 338.3257,924.29264 332.72549,927.18013 326.70151,928.62125 L 326.70151,928.79078 C 334.84482,930.57629 335.7826,935.57778 337.13891,941.77138 L 340.7046,958.23295 L 330.60625,958.23295 L 327.88829,945.59141 C 325.85378,936.25598 324.66699,933.11948 315.58581,933.11948 L 311.68106,933.11948 L 311.68106,958.23295 L 301.75757,958.23295 L 301.75757,899.68776"
         style="fill:white;fill-rule:nonzero;stroke:none;stroke-width:2;stroke-linecap:butt;stroke-linejoin:miter;stroke-miterlimit:4;stroke-dasharray:none"
         id="path14264" />
      <path
         d="M 359.37022,907.23768 L 344.68883,907.23768 L 344.68883,899.68776 L 383.97501,899.68776 L 383.97501,907.23768 L 369.29904,907.23768 L 369.29904,958.23295 L 359.37022,958.23295 L 359.37022,907.23768"
         style="fill:white;fill-rule:nonzero;stroke:none;stroke-width:2;stroke-linecap:butt;stroke-linejoin:miter;stroke-miterlimit:4;stroke-dasharray:none"
         id="path14266" />
      <path
         d="M 401.88295,926.07282 L 405.78246,926.07282 C 411.98139,926.07282 418.424,924.80122 418.424,916.14933 C 418.424,910.04044 415.28741,906.72909 409.6872,906.72909 L 401.88295,906.72909 L 401.88295,926.07282 z M 391.95413,899.68776 L 409.6872,899.68776 C 420.71809,899.68776 428.52768,903.59259 428.52768,915.04193 C 428.52768,924.29264 422.92747,927.18013 416.89807,928.62125 L 416.89807,928.79078 C 425.04671,930.57629 425.97924,935.57778 427.33556,941.77138 L 430.90125,958.23295 L 420.8029,958.23295 L 418.08485,945.59141 C 416.05042,936.25598 414.86355,933.11948 405.78246,933.11948 L 401.88295,933.11948 L 401.88295,958.23295 L 391.95413,958.23295 L 391.95413,899.68776"
         style="fill:white;fill-rule:nonzero;stroke:none;stroke-width:2;stroke-linecap:butt;stroke-linejoin:miter;stroke-miterlimit:4;stroke-dasharray:none"
         id="path14268" />
      <path
         d="M 452.70869,934.81485 L 469.00065,934.81485 L 460.93673,909.10266 L 460.7672,909.10266 L 452.70869,934.81485 z M 454.91274,899.68776 L 466.87608,899.68776 L 486.81844,958.23295 L 476.46576,958.23295 L 471.37422,942.3701 L 450.32979,942.3701 L 445.23817,958.23295 L 434.89081,958.23295 L 454.91274,899.68776"
         style="fill:white;fill-rule:nonzero;stroke:none;stroke-width:2;stroke-linecap:butt;stroke-linejoin:miter;stroke-miterlimit:4;stroke-dasharray:none"
         id="path14270" />
      <path
         d="M 504.89067,951.19162 L 509.47362,951.19162 C 519.48725,951.19162 524.23972,946.77819 524.23972,928.79078 C 524.23972,914.53867 521.77601,906.72909 509.47362,906.72909 L 504.89067,906.72909 L 504.89067,951.19162 z M 494.96184,899.68776 L 509.47362,899.68776 C 528.22395,899.68776 535.18048,907.83116 535.18048,928.79078 C 535.18048,955.85937 521.60648,958.23295 509.47362,958.23295 L 494.96184,958.23295 L 494.96184,899.68776"
         style="fill:white;fill-rule:nonzero;stroke:none;stroke-width:2;stroke-linecap:butt;stroke-linejoin:miter;stroke-miterlimit:4;stroke-dasharray:none"
         id="path14272" />
      <path
         d="M 544.93977,899.68776 L 579.13442,899.68776 L 579.13442,907.23768 L 554.86859,907.23768 L 554.86859,924.12311 L 577.86282,924.12311 L 577.86282,931.67836 L 554.86859,931.67836 L 554.86859,950.68303 L 579.81253,950.68303 L 579.81253,958.23295 L 544.93977,958.23295 L 544.93977,899.68776"
         style="fill:white;fill-rule:nonzero;stroke:none;stroke-width:2;stroke-linecap:butt;stroke-linejoin:miter;stroke-miterlimit:4;stroke-dasharray:none"
         id="path14274" />
    </g>
    <path
       d="M 240.87895,550.45545 C 207.9718,585.18524 187.62895,631.89974 187.62895,683.39295 C 187.62895,771.80942 247.2942,846.40296 328.44145,869.45545 C 337.59145,849.7779 341.59771,832.10126 341.5977,815.83045 C 341.5977,768.2102 307.62447,732.46428 269.81645,692.64295 L 264.94145,687.4867 C 238.42921,659.52278 230.7852,629.01997 230.7852,603.1117 C 230.7852,580.36657 236.67751,561.25847 240.87895,550.45545 z M 228.4102,574.01795 C 226.71483,582.56399 225.4727,592.84382 225.4727,603.1117 C 225.4727,636.57513 237.46247,666.21436 261.0977,691.1742 L 265.9727,696.26795 C 303.72247,736.00446 336.31645,770.31887 336.31645,815.83045 C 336.31645,830.69193 332.36366,846.11842 325.2852,862.6117 C 247.17915,838.19225 192.94145,765.39327 192.94145,683.39295 C 192.94145,644.11209 205.74979,605.76478 228.4102,574.01795 z M 196.63061,683.3992 C 196.63061,761.73313 248.49466,832.76614 323.04044,857.72597 C 329.22871,842.43006 332.60365,828.58592 332.60365,815.83311 C 332.60365,771.79445 300.46475,737.97598 263.27134,698.81696 L 258.40759,693.7042 C 234.08884,668.04503 221.77587,637.55914 221.77587,603.12081 C 221.77587,599.1896 222.6871,592.52444 223.03681,588.4872 C 206.04552,617.02862 196.63061,650.96893 196.63061,683.3992"
       style="fill:#bed832;fill-rule:nonzero;stroke:none;stroke-width:2;stroke-linecap:butt;stroke-linejoin:miter;stroke-miterlimit:4"
       id="path14240" />
  </g>
</svg>
